<svg width="417" height="408" viewBox="0 0 417 408" fill="white" xmlns="http://www.w3.org/2000/svg">
<path d="M208.5 0.666656C181.141 0.666656 154.051 6.05536 128.774 16.5251C103.498 26.9948 80.5317 42.3405 61.1862 61.6861C22.1161 100.756 0.166748 153.747 0.166748 209C0.166748 301.083 59.9584 379.208 142.667 406.917C153.083 408.583 156.417 402.125 156.417 396.5V361.292C98.7084 373.792 86.4167 333.375 86.4167 333.375C76.8334 309.208 63.2918 302.75 63.2918 302.75C44.3334 289.833 64.7501 290.25 64.7501 290.25C85.5834 291.708 96.6251 311.708 96.6251 311.708C114.75 343.375 145.375 334 157.25 329C159.125 315.458 164.542 306.292 170.375 301.083C124.125 295.875 75.5834 277.958 75.5834 198.583C75.5834 175.458 83.5001 156.917 97.0418 142.125C94.9584 136.917 87.6668 115.25 99.1251 87.125C99.1251 87.125 116.625 81.5 156.417 108.375C172.875 103.792 190.792 101.5 208.5 101.5C226.208 101.5 244.125 103.792 260.583 108.375C300.375 81.5 317.875 87.125 317.875 87.125C329.333 115.25 322.042 136.917 319.958 142.125C333.5 156.917 341.417 175.458 341.417 198.583C341.417 278.167 292.667 295.667 246.208 300.875C253.708 307.333 260.583 320.042 260.583 339.417V396.5C260.583 402.125 263.917 408.792 274.542 406.917C357.25 379 416.833 301.083 416.833 209C416.833 181.641 411.445 154.55 400.975 129.274C390.505 103.998 375.16 81.0316 355.814 61.6861C336.468 42.3405 313.502 26.9948 288.226 16.5251C262.95 6.05536 235.859 0.666656 208.5 0.666656Z"/>
</svg>
