<?xml version="1.0" encoding="UTF-8"?><svg id="Layer_1" xmlns="http://www.w3.org/2000/svg" width="320" height="320" viewBox="0 0 320 320"><path d="M241.71,94.43c-19.91-4.77-27.38-5.52-32.38-.52-5,5-4.25,12.47,.52,32.38,5.16,21.54,12.23,51.04-11.42,74.69s-53.15,16.58-74.69,11.42c-19.91-4.77-27.38-5.52-32.38-.52-5,5-4.25,12.47,.52,32.38,4.15,17.31,9.51,39.75-.8,60.17,20.87,9.98,44.25,15.57,68.93,15.57,88.37,0,160-71.63,160-160,0-24.31-5.43-47.36-15.14-67.99-21.2,12.48-45.01,6.77-63.16,2.42Z"/><path d="M52.04,278.09c.12-5.09-1.28-12.3-3.93-23.34-5.16-21.54-12.23-51.04,11.42-74.69,23.65-23.65,53.15-16.58,74.69-11.42,19.91,4.77,27.38,5.52,32.38,.52,5-5,4.25-12.47-.52-32.38-5.16-21.54-12.23-51.04,11.42-74.69,23.65-23.65,53.15-16.58,74.69-11.42,14.58,3.5,22.49,4.83,27.64,3.33C250.52,20.88,207.7,0,160,0,71.63,0,0,71.63,0,160c0,46.76,20.06,88.83,52.04,118.09Z"/></svg>